# xmcd
#
# Track frame offsets:
#	150
#	20367
#	39193
#	59959
#	80040
#	97022
#	118325
#	133090
#	151225
#	166987
#	180107
#	196630
#	210013
#	228074
#	241540
#	262770
#	279784
#	294502
#
# Disc length: 4149 seconds
#
# Revision: 0
# Processed by: cddbd v1.4PL0 Copyright (c) Steve Scherf et al.
# Submitted via: EasyCDDAExtractor 5.0.0.0
#
DISCID=dd103312
DTITLE=Vários - As 18 Mais Pedidas
DYEAR=1900
DGENRE=Sertanejas
TTITLE0=Filha - Rick and Renner
TTITLE1=Frio da solidão - Chitãozinho e Xororó
TTITLE2=Passou da conta - Zezé Di Camargo and Luciano
TTITLE3=Por te amar assim - Marlon and Maicon
TTITLE4=Se o vento soprar - Chrystian and Ralf
TTITLE5=Por um minuto - Bruno and Marrone
TTITLE6=Eu nasci pra te amar - Vanessa Camargo
TTITLE7=Inseparáveis - Chitãozinho e Xororó
TTITLE8=Faz amor comigo - Roberta Miranda
TTITLE9=Tá com raiva de mim - Chico Rey and Paraná
TTITLE10=Só um grande amor - Rene
TTITLE11=Alô - Iridio and Irineu
TTITLE12=Fala Sério - Zezé Di Camargo and Luciano
TTITLE13=Amor de carnaval - Bruno and Marrone
TTITLE14=É dez, é com, é mil - Rick and Renner
TTITLE15=Menina Linda - Chitãozinho e Xororó
TTITLE16=O Garrafão - Teodoro and Sampaio
TTITLE17=Dona encrenca - Leonardo
EXTD=
EXTT0=
EXTT1=
EXTT2=
EXTT3=
EXTT4=
EXTT5=
EXTT6=
EXTT7=
EXTT8=
EXTT9=
EXTT10=
EXTT11=
EXTT12=
EXTT13=
EXTT14=
EXTT15=
EXTT16=
EXTT17=
PLAYORDER=
